# xmcd
#
# Track frame offsets:
#	150
#	14095
#	27487
#	37954
#	50809
#	62099
#	73583
#	90915
#	104701
#	113608
#	123064
#	140195
#	150494
#	166293
#
# Disc length: 2386 seconds
#
# Revision: 0
# Processed by: cddbd v1.5.1PL0 Copyright (c) Steve Scherf et al.
# Submitted via: dBpowerAMP V4.0
#
DISCID=be09500e
DTITLE=Bar J Wranglers - Roamin' Wyoming
DYEAR=2004
DGENRE=Country
TTITLE0=Wyoming Home
TTITLE1=Sixteen Tons
TTITLE2=Panhandle Rag
TTITLE3=Tumblin' Tumbleweeds
TTITLE4=Ghost Riders in the Sky
TTITLE5=Roamin' Wyoming
TTITLE6=Cannonball Yodel
TTITLE7=Black Mountain Rag
TTITLE8=Campfire on the Trail
TTITLE9=Sioux City Sue
TTITLE10=The Blizzard
TTITLE11=Beaumont Rag
TTITLE12=Ridin' Home
TTITLE13=Low Down the Chariots
EXTD=Excellant production
EXTT0=
EXTT1=
EXTT2=
EXTT3=
EXTT4=
EXTT5=
EXTT6=
EXTT7=
EXTT8=
EXTT9=
EXTT10=
EXTT11=
EXTT12=
EXTT13=
PLAYORDER=
